<svg width="293" height="164" viewBox="0 0 293 164" fill="none" xmlns="http://www.w3.org/2000/svg" style="width: 100%; height: 100%;">
<g clip-path="url(#clip0_35_3163)">
<path d="M158.484 142.082C157.29 128.425 160.714 41.151 158.378 0.817993C152.024 1.34199 127.555 0.662993 121.153 1.68399C122.145 48.127 121.665 94.16 120.601 141.957C134.242 142.356 147.899 142.212 158.484 142.082Z" fill="white" stroke="#010101" stroke-width="1.5" stroke-linecap="round" stroke-linejoin="round"></path>
<path d="M134.305 106.077C134.305 84.078 134.828 49.706 134.828 28.733C139.373 28.799 144.32 28.133 145.553 28.765C146.049 46.777 145.553 106.217 145.553 106.217C145.553 106.217 138.055 106.275 134.305 106.077Z" fill="#7B5FF1" stroke="#010101" stroke-width="1.5" stroke-linecap="round" stroke-linejoin="round"></path>
<path d="M120.672 138.757C118.63 141.351 115.001 141.898 111.54 142.218C108.08 142.537 104.047 141.898 101.577 139.454C101.577 92.936 101.836 58.549 101.836 19.651C102.1 16.045 113.647 12.195 118.537 16.161C119.564 16.994 120.347 18.087 121.299 19.005C122.251 19.923 120.672 112.754 120.672 138.757Z" fill="#FF8B37" stroke="#010101" stroke-width="1.5" stroke-linecap="round" stroke-linejoin="round"></path>
<path d="M102.441 29.571C108.582 28.964 114.749 28.62 120.919 28.54" stroke="#010101" stroke-width="1.5" stroke-linecap="round" stroke-linejoin="round"></path>
<path d="M112.809 49.99C112.191 71.664 112.183 93.356 112.783 115.031" stroke="#010101" stroke-width="1.5" stroke-linecap="round" stroke-linejoin="round"></path>
<path d="M102.625 127.288C108.414 127.124 114.203 126.96 119.993 126.796" stroke="#010101" stroke-width="1.5" stroke-linecap="round" stroke-linejoin="round"></path>
<path d="M101.577 142.294C94.951 142.512 91.215 142.294 85.141 142.294C85.141 118.51 84.628 81.634 84.628 47.372C90.381 47.125 96.59 47.005 101.577 47.2V142.294Z" fill="white" stroke="#010101" stroke-width="1.5" stroke-linecap="round" stroke-linejoin="round"></path>
<path d="M214.289 137.281C209.639 124.385 190.609 39.142 178.026 0.75C172.017 2.883 164.922 3.92 158.995 6.545C171.842 51.187 183.161 95.809 194.369 142.286C207.657 139.18 204.09 140.116 214.289 137.281Z" fill="#E3E3FF" stroke="#010101" stroke-width="1.5" stroke-linecap="round" stroke-linejoin="round"></path>
<path d="M165.717 28.69C172.242 26.635 178.112 25.226 184.637 23.171" stroke="#010101" stroke-width="1.5" stroke-linecap="round" stroke-linejoin="round"></path>
<path d="M168.271 36.268C174.295 34.386 180.318 32.505 186.342 30.623" stroke="#010101" stroke-width="1.5" stroke-linecap="round" stroke-linejoin="round"></path>
<path d="M189.121 117.071C195.528 115.43 201.187 114.229 207.594 112.588" stroke="#010101" stroke-width="1.5" stroke-linecap="round" stroke-linejoin="round"></path>
<path d="M190.348 125.296C196.953 124.367 203.498 123.006 209.926 121.225" stroke="#010101" stroke-width="1.5" stroke-linecap="round" stroke-linejoin="round"></path>
<path d="M214.289 137.281C209.639 124.385 190.609 39.142 178.026 0.75C172.017 2.883 164.922 3.92 158.995 6.545C171.842 51.187 183.161 95.809 194.369 142.286C207.657 139.18 204.09 140.116 214.289 137.281Z" fill="#E3E3FF" stroke="#010101" stroke-width="1.5" stroke-linecap="round" stroke-linejoin="round"></path>
<path d="M165.717 28.69C172.242 26.635 178.112 25.226 184.637 23.171" stroke="#010101" stroke-width="1.5" stroke-linecap="round" stroke-linejoin="round"></path>
<path d="M168.271 36.268C174.295 34.386 180.318 32.505 186.342 30.623" stroke="#010101" stroke-width="1.5" stroke-linecap="round" stroke-linejoin="round"></path>
<path d="M189.121 117.071C195.528 115.43 201.187 114.229 207.594 112.588" stroke="#010101" stroke-width="1.5" stroke-linecap="round" stroke-linejoin="round"></path>
<path d="M190.348 125.296C196.953 124.367 203.498 123.006 209.926 121.225" stroke="#010101" stroke-width="1.5" stroke-linecap="round" stroke-linejoin="round"></path>
<path d="M12.872 103.475C12.808 119.326 12.429 127.022 13.389 143.013C39.306 142.952 68.5 142.619 91.935 142.619C92.453 128.081 92.564 120.769 92.564 104.06C92.564 103.476 21.18 102.738 12.872 103.475Z" fill="#7B5FF1" stroke="#010101" stroke-width="1.5" stroke-linecap="round" stroke-linejoin="round"></path>
<path d="M55.463 120.957L0.75 102.904L55.102 76.793L105.507 101.406L55.463 120.957Z" fill="#7B5FF1" stroke="#010101" stroke-width="1.5" stroke-linecap="round" stroke-linejoin="round"></path>
<path d="M27.348 111.793C26.967 129.069 26.726 135.639 26.726 150.415L27.348 111.793Z" fill="#7B5FF1"></path>
<path d="M27.348 111.793C26.967 129.069 26.726 135.639 26.726 150.415" stroke="#010101" stroke-width="1.5" stroke-linecap="round" stroke-linejoin="round"></path>
<path d="M30.213 154.458C29.12 153.311 27.799 151.48 26.706 150.334C25.451 151.566 24.267 152.87 22.839 154.457C22.977 157.068 23.003 159.685 22.916 162.299C24.285 162.39 28.535 162.192 29.965 162.287C29.965 160.027 29.97 158.481 30.213 154.458Z" fill="#7B5FF1" stroke="#010101" stroke-width="1.5" stroke-linecap="round" stroke-linejoin="round"></path>
<path d="M229.784 20.209C223.787 21.345 217.383 23.502 210.569 26.905C201.194 31.587 194.239 40.25 189.359 49.523C180.882 65.631 179.467 85.881 187.917 102.002C191.601 109.03 196.992 115.091 203.221 120.008C217.936 131.624 237.583 136.761 256.103 133.851" stroke="#010101" stroke-width="1.5" stroke-linecap="round" stroke-linejoin="round"></path>
<path d="M291.395 83.704C290.975 88.496 289.898 93.216 288.31 97.661C287.096 101.075 285.581 104.334 283.819 107.346C281.062 112.075 272.993 123.951 254.152 126.908C249.588 127.62 244.951 127.784 240.35 127.419C230.573 126.652 220.97 123.503 212.682 118.281C210.948 117.186 209.277 116.008 207.671 114.739C202.194 110.421 197.456 105.09 194.216 98.91C186.785 84.743 188.036 66.942 195.485 52.784C199.465 45.226 204.997 38.133 212.354 33.861C212.929 33.523 213.522 33.204 214.125 32.903C224.86 27.545 234.527 25.673 243.089 26.157C268.192 27.608 283.784 49.398 288.886 63.237C291.314 69.837 292.026 76.848 291.396 83.703L291.395 83.704Z" fill="#7B5FF1" stroke="#010101" stroke-width="1.5" stroke-linecap="round" stroke-linejoin="round"></path>
<path d="M240.826 143.197C240.576 134.366 241.239 136.032 240.946 127.328C241.937 126.956 243.039 126.887 244.069 127.132C244.456 138.638 243.741 143.186 243.741 143.186C243.741 143.186 243.163 144.128 240.826 143.197Z" fill="white" stroke="#010101" stroke-width="1.5" stroke-linecap="round" stroke-linejoin="round"></path>
<path d="M234.219 144.294C240.19 144.294 243.962 144.294 250.723 144.437C251.557 144.455 252.28 143.825 252.343 142.992C252.344 142.974 252.346 142.955 252.347 142.937C252.409 142.027 251.674 141.265 250.762 141.261C245.226 141.237 239.692 140.887 234.16 141.033C233.265 141.057 232.567 141.825 232.623 142.719C232.625 142.746 232.626 142.772 232.628 142.8C232.684 143.638 233.379 144.294 234.219 144.294Z" fill="white" stroke="#010101" stroke-width="1.5" stroke-linecap="round" stroke-linejoin="round"></path>
<path d="M228.86 14.484C230.093 18.669 231.188 22.896 232.141 27.153" stroke="#010101" stroke-width="1.5" stroke-linecap="round" stroke-linejoin="round"></path>
<path d="M254.997 126.767L257.77 137.441" stroke="#010101" stroke-width="1.5" stroke-linecap="round" stroke-linejoin="round"></path>
<path d="M291.395 83.704C286.201 85.384 280.505 84.882 275.192 83.567C271.093 82.554 266.858 80.874 264.439 77.414C260.66 71.983 262.622 64.223 259.565 58.363C256.626 52.703 249.861 50.239 245.653 45.455C242.485 41.858 240.897 36.92 241.363 32.146C241.573 30.065 242.166 28.029 243.088 26.158C268.191 27.609 283.783 49.399 288.885 63.238C291.313 69.838 292.025 76.849 291.395 83.704Z" fill="#55D087" stroke="#010101" stroke-width="1.5" stroke-linecap="round" stroke-linejoin="round"></path>
<path d="M288.309 97.661C287.095 101.075 285.58 104.334 283.818 107.346C281.061 112.075 272.992 123.951 254.151 126.908C249.587 127.62 244.95 127.784 240.349 127.419C239.445 124.744 238.788 121.997 238.542 119.185C238.086 113.89 239.245 108.286 242.595 104.16C245.954 100.034 251.723 97.715 256.808 99.249C259.282 99.998 261.482 101.568 264.019 102.015C269.076 102.928 273.695 99.304 278.597 97.77C281.756 96.784 285.133 96.812 288.31 97.66L288.309 97.661Z" fill="#55D087" stroke="#010101" stroke-width="1.5" stroke-linecap="round" stroke-linejoin="round"></path>
<path d="M228.86 101.322C223.369 113.478 217.472 113.594 215.583 115.745C214.725 116.722 213.739 117.552 212.68 118.283C210.946 117.188 209.275 116.01 207.669 114.741C202.192 110.423 197.454 105.092 194.214 98.912C186.783 84.745 188.034 66.944 195.483 52.786C199.463 45.228 204.995 38.135 212.352 33.863C217.856 37.195 222.065 42.736 223.187 49.089C224.419 56.018 222.448 63.621 225.624 69.911C227.139 72.905 229.715 80.608 230.5 83.876C231.385 87.518 230.402 97.907 228.859 101.322H228.86Z" fill="#55D087" stroke="#010101" stroke-width="1.5" stroke-linecap="round" stroke-linejoin="round"></path>
</g>
<defs>
<clipPath id="clip0_35_3163">
<rect width="292.362" height="163.072" fill="white"></rect>
</clipPath>
</defs>
</svg>